<svg width="24" height="24" viewBox="0 0 24 24" fill="none" xmlns="http://www.w3.org/2000/svg">
<path d="M14 17.9999C14.2653 17.9999 14.5196 17.8945 14.7071 17.707C14.8947 17.5195 15 17.2651 15 16.9999V14.9999C15 14.7347 14.8947 14.4803 14.7071 14.2928C14.5196 14.1053 14.2653 13.9999 14 13.9999C13.7348 13.9999 13.4805 14.1053 13.2929 14.2928C13.1054 14.4803 13 14.7347 13 14.9999V16.9999C13 17.2651 13.1054 17.5195 13.2929 17.707C13.4805 17.8945 13.7348 17.9999 14 17.9999ZM10 17.9999C10.2653 17.9999 10.5196 17.8945 10.7071 17.707C10.8947 17.5195 11 17.2651 11 16.9999V14.9999C11 14.7347 10.8947 14.4803 10.7071 14.2928C10.5196 14.1053 10.2653 13.9999 10 13.9999C9.73482 13.9999 9.48047 14.1053 9.29293 14.2928C9.10539 14.4803 9.00004 14.7347 9.00004 14.9999V16.9999C9.00004 17.2651 9.10539 17.5195 9.29293 17.707C9.48047 17.8945 9.73482 17.9999 10 17.9999ZM19 5.99991H17.62L15.89 2.5499C15.8372 2.42296 15.7587 2.30828 15.6595 2.21303C15.5603 2.11779 15.4426 2.04402 15.3136 1.99635C15.1846 1.94867 15.0472 1.92811 14.9099 1.93595C14.7726 1.94379 14.6384 1.97986 14.5157 2.04191C14.3929 2.10396 14.2843 2.19065 14.1966 2.29657C14.1089 2.40249 14.044 2.52536 14.006 2.6575C13.9679 2.78964 13.9575 2.92821 13.9754 3.06455C13.9933 3.20089 14.0391 3.33208 14.11 3.44991L15.38 5.99991H8.62004L9.89004 3.44991C9.9871 3.21681 9.9924 2.95563 9.90486 2.71879C9.81732 2.48196 9.64343 2.287 9.4181 2.17307C9.19277 2.05914 8.93268 2.03467 8.69005 2.10456C8.44742 2.17446 8.24022 2.33356 8.11004 2.5499L6.38004 5.99991H5.00004C4.29323 6.01066 3.61291 6.27065 3.07909 6.73404C2.54526 7.19742 2.19221 7.83443 2.08221 8.53271C1.9722 9.23099 2.11231 9.94569 2.47782 10.5508C2.84333 11.1558 3.41076 11.6124 4.08004 11.8399L4.82004 19.2999C4.89466 20.0425 5.24338 20.7306 5.79811 21.2298C6.35284 21.7291 7.07374 22.0036 7.82004 21.9999H16.2C16.9463 22.0036 17.6672 21.7291 18.222 21.2298C18.7767 20.7306 19.1254 20.0425 19.2 19.2999L19.94 11.8399C20.6108 11.6117 21.1791 11.1535 21.5443 10.5464C21.9096 9.9393 22.0482 9.22254 21.9356 8.52305C21.823 7.82356 21.4665 7.18649 20.9292 6.72468C20.3919 6.26287 19.7085 6.00612 19 5.99991ZM17.19 19.0999C17.1652 19.3474 17.0489 19.5768 16.864 19.7432C16.6791 19.9096 16.4388 20.0012 16.19 19.9999H7.81004C7.56127 20.0012 7.32097 19.9096 7.13606 19.7432C6.95115 19.5768 6.83491 19.3474 6.81004 19.0999L6.10004 11.9999H17.9L17.19 19.0999ZM19 9.9999H5.00004C4.73482 9.9999 4.48047 9.89455 4.29293 9.70701C4.10539 9.51948 4.00004 9.26512 4.00004 8.99991C4.00004 8.73469 4.10539 8.48033 4.29293 8.2928C4.48047 8.10526 4.73482 7.99991 5.00004 7.99991H19C19.2653 7.99991 19.5196 8.10526 19.7071 8.2928C19.8947 8.48033 20 8.73469 20 8.99991C20 9.26512 19.8947 9.51948 19.7071 9.70701C19.5196 9.89455 19.2653 9.9999 19 9.9999Z" fill="#2E2E2E"/>
</svg>
